<svg width="600" height="94" viewBox="0 0 600 94" fill="none" xmlns="http://www.w3.org/2000/svg">
<path d="M168.568 6.62391C168.376 6.87991 167.96 7.58391 167.8 7.99991C166.52 11.1679 164.088 15.6479 161.432 18.5919C157.848 22.5919 153.272 26.3999 148.216 28.7039L146.168 26.5599C151.352 24.5759 156.056 20.7359 159.352 17.0879C161.528 14.6239 163.864 10.8159 164.696 8.15991C163.544 8.15991 153.304 8.15991 152.216 8.15991C151.064 8.15991 149.336 8.28791 148.984 8.31991V5.43991C149.4 5.50391 151.224 5.63191 152.216 5.63191C153.464 5.63191 163.352 5.63191 164.568 5.63191C165.592 5.63191 166.456 5.53591 166.968 5.37591L168.568 6.62391ZM161.848 16.9279C165.304 19.8079 169.56 24.2879 171.736 26.9439L169.528 28.8959C167.224 25.8559 163.48 21.7599 160.024 18.7199L161.848 16.9279Z" fill="white"/>
<path d="M188.28 13.3439C192.376 15.7439 197.624 19.4239 200.792 21.9839L198.904 24.2239C195.96 21.5359 190.488 17.5999 186.52 15.1359L188.28 13.3439ZM202.904 7.51991C202.648 7.96791 202.328 8.70391 202.168 9.21591C201.208 12.4799 199.192 16.7359 196.376 20.1919C193.464 23.7759 189.304 27.1999 183.224 29.4399L180.952 27.4239C186.904 25.6319 191.256 22.2399 194.136 18.8159C196.6 15.8719 198.616 11.8079 199.352 8.83191H187.512L188.536 6.52791H198.712C199.576 6.52791 200.28 6.43191 200.792 6.23991L202.904 7.51991ZM192.12 2.87991C191.576 3.71191 191 4.79991 190.68 5.40791C188.792 8.92791 185.176 13.7599 180.056 17.2799L177.944 15.6479C183.416 12.2239 186.712 7.42391 188.184 4.47991C188.504 3.93591 189.016 2.78391 189.208 1.95191L192.12 2.87991Z" fill="white"/>
<path d="M229.912 4.12791C230.712 5.31191 232.152 7.58391 232.888 9.11991L231.064 9.95191C230.264 8.25591 229.176 6.33591 228.12 4.89591L229.912 4.12791ZM234.072 2.59191C234.936 3.71191 236.376 6.01591 237.144 7.48791L235.32 8.31991C234.488 6.65591 233.368 4.79991 232.312 3.39191L234.072 2.59191ZM216.216 3.64791C218.104 4.70391 221.784 7.16791 223.192 8.19191L221.656 10.3679C220.152 9.21591 216.664 6.87991 214.776 5.82391L216.216 3.64791ZM211.416 26.5279C214.936 25.9199 218.904 24.6719 222.168 22.8159C227.48 19.7759 231.672 15.6159 234.264 11.1039L235.832 13.7279C233.048 18.0159 228.632 22.1759 223.512 25.1519C220.28 27.0399 215.864 28.5439 212.92 29.1519L211.416 26.5279ZM211.416 10.8479C213.304 11.8719 217.048 14.1759 218.424 15.1679L216.952 17.4079C215.384 16.2879 211.928 14.0479 209.976 13.0559L211.416 10.8479Z" fill="white"/>
<path d="M260.088 2.97591C259.96 3.83991 259.896 4.76791 259.928 5.63191C259.96 9.18391 260.184 20.3519 260.216 26.3359C260.248 28.0319 259.224 28.9279 257.304 28.9279C255.672 28.9279 253.784 28.8319 252.184 28.7359L251.96 26.0799C253.496 26.3359 255.288 26.4639 256.504 26.4639C257.4 26.4639 257.688 26.0479 257.688 25.1839C257.688 20.6079 257.56 9.18391 257.4 5.63191C257.336 4.41591 257.272 3.64791 257.144 2.97591H260.088ZM242.904 8.57591C243.832 8.67191 244.888 8.73591 245.848 8.73591C247.544 8.73591 263.384 8.73591 265.016 8.73591C265.848 8.73591 267.096 8.63991 267.736 8.54391V11.2639C266.968 11.2319 265.88 11.1679 265.08 11.1679C263.672 11.1679 247.352 11.1679 245.912 11.1679C244.824 11.1679 243.928 11.2319 242.904 11.2959V8.57591ZM241.752 23.5199C248.504 20.1919 254.424 14.5919 256.792 10.6879H258.072L258.104 12.8319C255.672 16.6399 249.72 22.3359 243.576 25.5999L241.752 23.5199Z" fill="white"/>
<path d="M293.912 4.12791C294.712 5.31191 296.152 7.58391 296.888 9.11991L295.064 9.95191C294.264 8.25591 293.176 6.33591 292.12 4.89591L293.912 4.12791ZM298.072 2.59191C298.936 3.71191 300.376 6.01591 301.144 7.48791L299.32 8.31991C298.488 6.65591 297.368 4.79991 296.312 3.39191L298.072 2.59191ZM280.216 3.64791C282.104 4.70391 285.784 7.16791 287.192 8.19191L285.656 10.3679C284.152 9.21591 280.664 6.87991 278.776 5.82391L280.216 3.64791ZM275.416 26.5279C278.936 25.9199 282.904 24.6719 286.168 22.8159C291.48 19.7759 295.672 15.6159 298.264 11.1039L299.832 13.7279C297.048 18.0159 292.632 22.1759 287.512 25.1519C284.28 27.0399 279.864 28.5439 276.92 29.1519L275.416 26.5279ZM275.416 10.8479C277.304 11.8719 281.048 14.1759 282.424 15.1679L280.952 17.4079C279.384 16.2879 275.928 14.0479 273.976 13.0559L275.416 10.8479Z" fill="white"/>
<path d="M327.16 1.40791C327.928 2.52791 329.08 4.41591 329.72 5.63191L327.928 6.43191C327.288 5.11991 326.2 3.29591 325.4 2.14391L327.16 1.40791ZM331.288 0.60791C332.056 1.69591 333.24 3.58391 333.912 4.83191L332.12 5.59991C331.416 4.28791 330.392 2.43191 329.528 1.34391L331.288 0.60791ZM330.04 7.16791C329.848 7.61591 329.688 8.15991 329.56 8.76791C328.888 12.1279 327.32 17.3119 324.792 20.5759C321.88 24.3519 318.072 27.2959 312.216 29.1519L310.04 26.7519C316.216 25.1839 319.832 22.4639 322.488 19.0399C324.76 16.1599 326.264 11.6799 326.68 8.60791C324.856 8.60791 312.152 8.60791 310.328 8.60791C309.048 8.60791 307.96 8.67191 307.128 8.73591V5.88791C308.024 5.98391 309.272 6.11191 310.328 6.11191C312.152 6.11191 324.92 6.11191 326.392 6.11191C326.872 6.11191 327.512 6.07991 328.088 5.91991L330.04 7.16791Z" fill="white"/>
<path d="M359.8 3.74391C359.736 4.51191 359.704 5.43991 359.704 6.52791C359.704 7.77591 359.704 10.4959 359.704 11.6799C359.704 19.3919 358.68 21.9199 356.344 24.6399C354.296 27.1359 351.096 28.5439 348.76 29.3439L346.648 27.1359C349.592 26.3679 352.312 25.1199 354.296 22.8479C356.568 20.2239 356.984 17.5999 356.984 11.5839C356.984 10.3359 356.984 7.64791 356.984 6.52791C356.984 5.43991 356.888 4.51191 356.792 3.74391H359.8ZM344.952 3.99991C344.888 4.60791 344.856 5.53591 344.856 6.27191C344.856 7.23191 344.856 15.6159 344.856 16.9599C344.856 17.7919 344.888 18.8479 344.952 19.4239H342.04C342.104 18.9119 342.168 17.8879 342.168 16.9599C342.168 15.5839 342.168 7.23191 342.168 6.27191C342.168 5.72791 342.136 4.60791 342.04 3.99991H344.952Z" fill="white"/>
<path d="M384.513 20.9919H387.97C387.97 21.7919 388.322 25.2799 391.81 25.2799C393.986 25.2799 395.617 23.7759 395.617 21.2799C395.617 18.6239 393.442 18.0479 391.81 17.4079C388.642 16.1919 387.873 15.8079 386.785 14.7519C385.697 13.6959 385.185 11.9679 385.185 10.3039C385.185 7.55191 387.33 3.87191 391.81 3.87191C395.746 3.87191 398.594 6.46391 398.594 10.4639H395.138C395.138 7.83991 393.218 7.03991 391.81 7.03991C389.762 7.03991 388.642 8.89591 388.642 10.2719C388.642 12.5439 390.786 13.1519 391.81 13.5359C394.786 14.6559 399.073 15.5839 399.073 21.2799C399.073 25.4079 396.162 28.4479 391.81 28.4479C388.546 28.4479 384.513 26.2719 384.513 20.9919Z" fill="white"/>
<path d="M408.13 27.9999H404.674V7.48791H400.13V4.31991H412.674V7.48791H408.13V27.9999Z" fill="white"/>
<path d="M431.146 4.31991V20.3519C431.146 23.0399 430.25 24.9919 428.746 26.4319C427.274 27.6479 425.386 28.4479 423.21 28.4479C421.034 28.4479 419.145 27.6479 417.673 26.4319C416.169 24.9919 415.273 23.0399 415.273 20.3519V4.31991H418.729V20.2559C418.729 24.6399 421.93 25.2799 423.21 25.2799C424.49 25.2799 427.69 24.6399 427.69 20.2559V4.31991H431.146Z" fill="white"/>
<path d="M435.58 27.9999V4.31991H443.26C448.188 4.31991 451.132 6.20791 452.924 8.67191C454.62 11.0399 455.356 13.9199 455.356 16.2239C455.356 19.4239 454.14 22.8479 452.38 24.5759C449.66 27.2639 446.46 27.9999 443.132 27.9999H435.58ZM439.036 7.48791V24.8319H443.164C447.324 24.8319 451.9 22.7519 451.9 16.2239C451.9 12.6399 449.692 7.48791 443.228 7.48791H439.036Z" fill="white"/>
<path d="M462.793 27.9999H459.337V4.31991H462.793V27.9999Z" fill="white"/>
<path d="M491.012 16.2239C491.012 22.6879 485.732 28.4479 478.692 28.4479C471.62 28.4479 466.372 22.6559 466.372 16.1599C466.372 9.72791 471.46 3.87191 478.692 3.87191C485.732 3.87191 491.012 9.47191 491.012 16.2239ZM487.556 16.2559C487.556 12.0639 484.58 7.03991 478.692 7.03991C472.58 7.03991 469.828 12.3839 469.828 16.1599C469.828 20.0319 472.612 25.2799 478.692 25.2799C484.804 25.2799 487.556 19.9679 487.556 16.2559Z" fill="white"/>
<path d="M525.03 10.2719H520.998C520.006 9.18391 518.022 7.03991 514.534 7.03991C509.606 7.03991 505.766 11.2639 505.766 16.2239C505.766 21.4399 510.086 25.2799 514.566 25.2799C515.238 25.2799 520.454 25.2159 522.726 19.3919H511.686V16.2239H526.662C526.534 24.1599 520.198 28.4479 514.438 28.4479C507.526 28.4479 502.31 22.8479 502.31 16.2239C502.31 9.40791 507.59 3.87191 514.406 3.87191C518.438 3.87191 522.726 6.01591 525.03 10.2719Z" fill="white"/>
<path d="M546.76 27.9999H543.304V17.6959H533.544V27.9999H530.088V4.31991H533.544V14.5279H543.304V4.31991H546.76V27.9999Z" fill="white"/>
<path d="M554.981 27.9999H551.525V4.31991H554.981V27.9999Z" fill="white"/>
<path d="M559.744 27.9999V4.31991H565.888C572.576 4.31991 573.28 9.21591 573.28 10.8799C573.28 13.5039 571.968 14.6559 571.168 15.3599C572.16 15.9359 574.688 17.4399 574.688 21.1199C574.688 23.5519 573.344 27.9999 566.816 27.9999H559.744ZM563.2 17.3439V24.8319H566.944C570.432 24.8319 571.232 22.3359 571.232 21.1199C571.232 20.2559 570.88 19.4239 570.4 18.7839C569.344 17.3759 567.744 17.3439 566.528 17.3439H563.2ZM563.2 7.48791V14.1759H566.016C569.248 14.1759 569.824 12.2239 569.824 10.8479C569.824 7.48791 566.592 7.48791 565.824 7.48791H563.2Z" fill="white"/>
<path d="M590.114 27.9999H578.434V4.31991H581.89V24.8319H590.114V27.9999Z" fill="white"/>
<path d="M595.981 27.9999H592.525V4.31991H595.981V27.9999Z" fill="white"/>
<path d="M36.625 84.4062L38.2812 86.1249C34.8125 90.6562 29.6562 92.9999 22.75 93.0937C16.5938 93.0937 11.5938 91.4062 7.78125 88.0624C3.5 84.2187 1.0625 78.1562 0.4375 69.9062C1.0625 61.6874 3.5 55.6249 7.78125 51.7812C11.5938 48.4374 16.5938 46.7499 22.75 46.7499H23.25C24.7188 46.8124 26.1562 46.9687 27.5938 47.1874C30.5 47.6562 33.5 48.4374 36.5312 49.5312L37.1562 58.8437C35.4062 58.8437 34.0938 56.7499 33.2188 52.5624C31.375 50.9999 29.2188 50.0312 26.7188 49.6249C25.6875 49.4687 24.5625 49.3437 23.375 49.2812C18.6562 49.2812 14.9062 50.9374 12.125 54.2187C9.3125 58.1562 7.90625 63.3749 7.90625 69.9062C7.90625 76.4999 9.3125 81.4374 12.125 84.7499C14.9062 88.0312 18.6562 89.6874 23.375 89.6874C29.3125 89.5937 33.7188 87.8124 36.625 84.4062Z" fill="white"/>
<path d="M53.0938 73.4374H67.0312L60.25 51.4687L53.0938 73.4374ZM60.1875 46.9999H65.875L78.75 89.3124C82.7188 89.9687 84.7188 91.0624 84.7188 92.6249L78.625 91.9999H71.6562L67.0938 92.6249C67.0938 91.0624 68.6562 89.9687 71.8125 89.3124L68.0312 76.7812H52L47.9375 89.3124C51.375 89.9687 53.0938 91.0624 53.0938 92.6249L48.0312 91.9999H44.875L39.0625 92.6249C39.0625 91.0624 41.0312 89.9687 44.9688 89.3124L57.9062 49.3124C55.1562 48.6562 53.7812 47.6562 53.7812 46.3749L60.1875 46.9999Z" fill="white"/>
<path d="M100.531 89.5624H118.594C119.469 83.9374 120.969 81.1249 123.062 81.1249L122.438 91.9999H93.9062L87.6875 92.6249C87.6875 91.0312 89.75 90.0312 93.875 89.5624V50.3749C89.75 49.5312 87.6875 48.3124 87.6875 46.7499L93.9062 47.6562H100.531L106.812 47.0312C106.812 48.6249 104.719 49.7187 100.531 50.3749V89.5624Z" fill="white"/>
<path d="M162.5 84.4062L164.156 86.1249C160.688 90.6562 155.531 92.9999 148.625 93.0937C142.469 93.0937 137.469 91.4062 133.656 88.0624C129.375 84.2187 126.938 78.1562 126.312 69.9062C126.938 61.6874 129.375 55.6249 133.656 51.7812C137.469 48.4374 142.469 46.7499 148.625 46.7499H149.125C150.594 46.8124 152.031 46.9687 153.469 47.1874C156.375 47.6562 159.375 48.4374 162.406 49.5312L163.031 58.8437C161.281 58.8437 159.969 56.7499 159.094 52.5624C157.25 50.9999 155.094 50.0312 152.594 49.6249C151.562 49.4687 150.438 49.3437 149.25 49.2812C144.531 49.2812 140.781 50.9374 138 54.2187C135.188 58.1562 133.781 63.3749 133.781 69.9062C133.781 76.4999 135.188 81.4374 138 84.7499C140.781 88.0312 144.531 89.6874 149.25 89.6874C155.188 89.5937 159.594 87.8124 162.5 84.4062Z" fill="white"/>
<path d="M174.125 89.2812V50.3749C169.688 49.7187 167.469 48.6249 167.469 47.0312L174.031 47.6562H180.906L187.469 47.0312C187.469 48.6249 185.25 49.7187 180.781 50.3749V89.2812C185.25 89.9374 187.469 91.0312 187.469 92.6249L180.875 91.9999H174.062L167.469 92.6249C167.469 91.0312 169.688 89.9374 174.125 89.2812Z" fill="white"/>
<path d="M212.281 92.6249L205.656 91.9999H199.062L192.312 92.6249C192.312 91.0312 194.531 89.9374 198.938 89.2812V50.1249C194.531 49.6562 192.312 48.6249 192.312 47.0312L199 47.6562H227.125L227.75 58.6562C225.469 58.6562 223.906 55.8124 223 50.1249H205.594V67.9374H217C217.906 64.0312 219.219 62.0624 220.969 62.0624L220.344 68.1562V70.8437L220.969 76.7187C219.219 76.7187 217.906 74.6249 217 70.4687H205.594V89.2812C210.062 89.9374 212.281 91.0312 212.281 92.6249Z" fill="white"/>
<path d="M237.125 47.6562H265.25L265.875 58.6562C263.688 58.6562 262.156 55.9062 261.281 50.3749H243.969V67.7187H255.219C256.094 63.7499 257.375 61.7499 259.094 61.7499L258.469 67.6874V70.7812L259.094 76.7187C257.375 76.7187 256.094 74.5624 255.219 70.2812H243.969V89.2812H263.812C264.688 83.8437 266.219 81.1249 268.438 81.1249L267.812 91.9999H237.188L230.938 92.6249C230.938 91.0312 233.062 89.9374 237.312 89.2812V50.3749C233.062 49.7187 230.938 48.6249 230.938 47.0312L237.125 47.6562Z" fill="white"/>
<path d="M285.781 50.3749V89.2812C289.469 89.9374 291.312 91.0312 291.312 92.6249L285.906 91.9999H279.031L272.844 92.6249C272.844 91.0312 274.938 89.9374 279.125 89.2812V50.3749C275.031 49.7187 272.969 48.6249 272.969 47.0312L279.031 47.6562H288.812C301.188 47.6562 307.375 51.6562 307.375 59.6249C307.344 65.3437 304.312 68.7812 298.281 69.9062C304.375 71.6249 308.438 77.9687 310.406 88.9687C313.438 89.6249 314.938 90.8437 314.938 92.6249L310.375 91.9999H304.406C302.625 79.3437 297.781 72.2812 289.938 70.8124C289.219 70.7187 288.5 70.6562 287.781 70.6562V69.1249L288.938 69.0624C296.094 68.7812 299.656 65.6249 299.656 59.6249C299.656 53.6562 296.312 50.5937 289.656 50.3749H285.781Z" fill="white"/>
<path d="M327.219 51.7499C327.219 59.2812 324.625 63.5624 319.469 64.6562L318.688 63.0937C321.031 62.7812 322.875 61.2499 324.156 58.5312C324.656 57.4374 324.906 56.3437 324.938 55.2812H322.031C319.25 55.2812 317.875 54.0624 317.875 51.6562C317.875 48.6874 319.469 47.1562 322.656 47.0624C325.688 47.1562 327.219 48.7187 327.219 51.7499Z" fill="white"/>
<path d="M337.344 50.0312C340.438 47.8437 344.125 46.7187 348.375 46.6249C351.875 46.6562 355.75 47.4999 359.969 49.0937L360.594 58.9062C358.625 58.9062 357.219 56.6562 356.312 52.1249C354.281 50.3437 351.656 49.4687 348.438 49.4374C345.156 49.4374 342.75 50.1874 341.219 51.7187C339.75 53.3749 339.031 55.4062 339.031 57.8437C339.5 61.2499 343.219 64.2499 350.156 66.7812C358.688 69.9999 362.938 74.2187 362.969 79.4374C362.938 87.9062 357.875 92.4062 347.844 92.9062C341.688 92.9062 336.688 92.0937 332.906 90.4374L332.281 80.6249C334.25 80.6249 335.688 83.1249 336.594 88.0937C338.219 89.4999 341.594 90.1874 346.688 90.1874C352.938 89.7812 356.062 86.8437 356.062 81.3124C355.844 78.2499 352.625 75.4687 346.344 72.9374C337.25 69.5312 332.625 64.8749 332.5 58.9374C332.812 55.1249 334.438 52.1562 337.344 50.0312Z" fill="white"/>
<path d="M398.594 72.0937V70.5312L399.75 70.4687C407.094 70.1874 410.781 66.9374 410.781 60.7187C410.781 53.8437 407.344 50.4062 400.469 50.4062H396.594V89.2812C400.688 89.9374 402.75 91.0312 402.75 92.6249L396.719 91.9999H389.844L383.656 92.6249C383.656 91.0312 385.75 89.9374 389.938 89.2812V50.4062C385.844 49.7499 383.781 48.6562 383.781 47.0624L389.844 47.6874H399.625C412.219 47.6874 418.5 52.0312 418.5 60.7187C418.469 68.3437 412.656 72.1562 401.094 72.1562C400.188 72.1562 399.375 72.1249 398.594 72.0937Z" fill="white"/>
<path d="M429.562 89.2812V50.3749C425.125 49.7187 422.906 48.6249 422.906 47.0312L429.469 47.6562H436.344L442.906 47.0312C442.906 48.6249 440.688 49.7187 436.219 50.3749V89.2812C440.688 89.9374 442.906 91.0312 442.906 92.6249L436.312 91.9999H429.5L422.906 92.6249C422.906 91.0312 425.125 89.9374 429.562 89.2812Z" fill="white"/>
<path d="M484 84.4062L485.656 86.1249C482.188 90.6562 477.031 92.9999 470.125 93.0937C463.969 93.0937 458.969 91.4062 455.156 88.0624C450.875 84.2187 448.438 78.1562 447.812 69.9062C448.438 61.6874 450.875 55.6249 455.156 51.7812C458.969 48.4374 463.969 46.7499 470.125 46.7499H470.625C472.094 46.8124 473.531 46.9687 474.969 47.1874C477.875 47.6562 480.875 48.4374 483.906 49.5312L484.531 58.8437C482.781 58.8437 481.469 56.7499 480.594 52.5624C478.75 50.9999 476.594 50.0312 474.094 49.6249C473.062 49.4687 471.938 49.3437 470.75 49.2812C466.031 49.2812 462.281 50.9374 459.5 54.2187C456.688 58.1562 455.281 63.3749 455.281 69.9062C455.281 76.4999 456.688 81.4374 459.5 84.7499C462.281 88.0312 466.031 89.6874 470.75 89.6874C476.688 89.5937 481.094 87.8124 484 84.4062Z" fill="white"/>
<path d="M524.219 80.6562V50.3749C520.406 49.7187 518.5 48.6249 518.5 47.0312L524.5 47.6562H527.188L533.031 47.0312C533.031 48.6249 531.094 49.7187 527.25 50.3749V92.3749H525.062L497.406 54.8124H496.781V89.2812C500.531 89.9062 502.406 91.0312 502.406 92.6249L496.719 91.9999H494L487.844 92.6249C487.844 91.0312 489.812 89.9062 493.75 89.2812V50.3749C489.625 49.7187 487.562 48.6249 487.562 47.0312L493.969 47.6562H500.062L524.219 80.6562Z" fill="white"/>
<path d="M543.062 89.2812V50.3749C538.625 49.7187 536.406 48.6249 536.406 47.0312L542.969 47.6562H549.844L556.406 47.0312C556.406 48.6249 554.188 49.7187 549.719 50.3749V89.2812C554.188 89.9374 556.406 91.0312 556.406 92.6249L549.812 91.9999H543L536.406 92.6249C536.406 91.0312 538.625 89.9374 543.062 89.2812Z" fill="white"/>
<path d="M597.5 84.4062L599.156 86.1249C595.688 90.6562 590.531 92.9999 583.625 93.0937C577.469 93.0937 572.469 91.4062 568.656 88.0624C564.375 84.2187 561.938 78.1562 561.312 69.9062C561.938 61.6874 564.375 55.6249 568.656 51.7812C572.469 48.4374 577.469 46.7499 583.625 46.7499H584.125C585.594 46.8124 587.031 46.9687 588.469 47.1874C591.375 47.6562 594.375 48.4374 597.406 49.5312L598.031 58.8437C596.281 58.8437 594.969 56.7499 594.094 52.5624C592.25 50.9999 590.094 50.0312 587.594 49.6249C586.562 49.4687 585.438 49.3437 584.25 49.2812C579.531 49.2812 575.781 50.9374 573 54.2187C570.188 58.1562 568.781 63.3749 568.781 69.9062C568.781 76.4999 570.188 81.4374 573 84.7499C575.781 88.0312 579.531 89.6874 584.25 89.6874C590.188 89.5937 594.594 87.8124 597.5 84.4062Z" fill="white"/>
</svg>
